<?xml version="1.0" encoding="UTF-8"?>
<svg width="16px" height="16px" viewBox="0 0 16 16" version="1.1" xmlns="http://www.w3.org/2000/svg" xmlns:xlink="http://www.w3.org/1999/xlink">
    <!-- Generator: Sketch 52.5 (67469) - http://www.bohemiancoding.com/sketch -->
    <title>icon</title>
    <desc>Created with Sketch.</desc>
    <g id="Page-1" stroke="none" stroke-width="1" fill="none" fill-rule="evenodd">
        <g id="简历（鼠标hover状态）" transform="translate(-1087.000000, -617.000000)" fill-rule="nonzero">
            <g id="在线简历" transform="translate(419.000000, 81.000000)">
                <g id="教育背景" transform="translate(0.000000, 484.000000)">
                    <g id="删除" transform="translate(667.000000, 50.000000)">
                        <g id="icon" transform="translate(0.000000, 2.000000)">
                            <rect id="Rectangle-path" fill="#000000" opacity="0" x="0" y="0" width="16" height="15.0588235"></rect>
                            <path d="M7.81790951,6.33371428 L7.81790951,12.3337143 C7.82110582,12.4235985 7.78371217,12.5106346 7.7147642,12.5737914 C7.64581622,12.6369483 7.55158606,12.6704806 7.45484312,12.6662857 L6.7262489,12.6662857 C6.62928469,12.6705013 6.53485055,12.6368164 6.4658615,12.5734048 C6.39687245,12.5099931 6.35963409,12.4226506 6.36318252,12.3325714 L6.36318252,6.33257142 C6.3599862,6.2426872 6.39737986,6.15565113 6.46632783,6.09249429 C6.5352758,6.02933746 6.62950597,5.99580515 6.7262489,6 L7.45238167,6 C7.54934588,5.99578439 7.64378001,6.02946933 7.71276906,6.09288096 C7.78175811,6.15629259 7.81899648,6.24363509 7.81544805,6.33371428 L7.81667877,6.33371428 L7.81790951,6.33371428 Z M11.7273635,12.3337143 C11.730584,12.4238069 11.6930253,12.5110345 11.6238018,12.5742295 C11.5545783,12.6374245 11.4600175,12.6708105 11.3630664,12.6662857 L10.6369336,12.6662857 C10.5399694,12.6705013 10.4455353,12.6368164 10.3765462,12.5734048 C10.3075572,12.5099931 10.2703188,12.4226506 10.2738672,12.3325714 L10.2738672,6.33257142 C10.2706709,6.2426872 10.3080646,6.15565113 10.3770126,6.09249429 C10.4459605,6.02933746 10.5401907,5.99580515 10.6369336,6 L11.3630664,6 C11.4600306,5.99578439 11.5544647,6.02946933 11.6234538,6.09288096 C11.6924428,6.15629259 11.7296812,6.24363509 11.7261328,6.33371428 L11.7273635,12.3337143 Z M14.0903137,13.8754286 L14.0903137,4 L3.90961318,4 L3.90968626,13.8742857 C3.90675177,14.1272541 3.99225885,14.3742818 4.1533715,14.5782857 C4.20998523,14.6377143 4.25059945,14.6662857 4.27275265,14.6662857 L13.7272474,14.6662857 C13.7494005,14.6662857 13.788784,14.6377143 13.8466285,14.5782857 C14.0079259,14.3747375 14.0938558,14.1281368 14.0915445,13.8754286 L14.0903137,13.8754286 Z M6.45484312,2.66628572 L11.5451569,2.66628572 L10.9999419,1.448 C10.9529293,1.38906675 10.8841066,1.34836061 10.8067168,1.33371428 L7.20435982,1.33371428 C7.12696999,1.34836061 7.0581473,1.38906675 7.01113467,1.448 L6.45484312,2.66628572 Z M16.9997677,3 L16.9997677,3.66628572 C17.0033161,3.75636491 16.9660778,3.84370741 16.8970887,3.90711904 C16.8280997,3.97053067 16.7336656,4.0042156 16.6367014,4 L15.5450407,4 L15.5450407,13.8742857 C15.5450407,14.4514286 15.3678151,14.9485714 15.0109024,15.3702857 C14.6539897,15.7897143 14.2269252,16 13.7272474,16 L4.27275265,16 C3.77307485,16 3.34477959,15.7965714 2.98909761,15.3908571 C2.63218489,14.984 2.45495927,14.4925714 2.45495927,13.9165714 L2.45495927,4 L1.36329865,4 C1.26633444,4.0042156 1.17190032,3.97053067 1.10291127,3.90711904 C1.03392222,3.84370741 0.996683857,3.75636491 1.00023228,3.66628572 L1.00023228,3 C0.996683857,2.90992081 1.03392222,2.82257831 1.10291127,2.75916668 C1.17190032,2.69575505 1.26633444,2.66207011 1.36329865,2.66628572 L4.87458132,2.66628572 L5.67086589,0.926857141 C5.78409337,0.669714281 5.98839513,0.451428563 6.28377117,0.270857141 C6.57914721,0.0902857187 6.87944618,0 7.18220663,0 L10.8177934,0 C11.1205538,0 11.4208528,0.0902857187 11.7162288,0.270857141 C12.0116049,0.451428562 12.2159066,0.670857141 12.3291341,0.926857141 L13.1254187,2.66628572 L16.6367014,2.66628572 C16.7336656,2.66207011 16.8280997,2.69575505 16.8970887,2.75916668 C16.9660778,2.82257831 17.0033161,2.90992081 16.9997677,3 Z" id="Shape" fill="#6AA2E4"></path>
                        </g>
                    </g>
                </g>
            </g>
        </g>
    </g>
</svg>