<?xml version="1.0" encoding="UTF-8"?>
<svg width="15px" height="15px" viewBox="0 0 15 15" version="1.1" xmlns="http://www.w3.org/2000/svg" xmlns:xlink="http://www.w3.org/1999/xlink">
    <!-- Generator: Sketch 52.5 (67469) - http://www.bohemiancoding.com/sketch -->
    <title>Shape</title>
    <desc>Created with Sketch.</desc>
    <g id="Page-1" stroke="none" stroke-width="1" fill="none" fill-rule="evenodd">
        <g id="简历（鼠标hover状态）" transform="translate(-1159.000000, -618.000000)" fill="#6AA2E4" fill-rule="nonzero">
            <g id="在线简历" transform="translate(419.000000, 81.000000)">
                <g id="教育背景" transform="translate(0.000000, 484.000000)">
                    <g id="编辑" transform="translate(740.000000, 50.000000)">
                        <g id="icon" transform="translate(0.000000, 3.000000)">
                            <path d="M13.7011787,14.3999997 L1.09882104,14.3999997 C0.713084205,14.3999997 0.4,14.0869155 0.4,13.7011786 L0.4,1.09882101 C0.4,0.713084176 0.713084205,0.399999973 1.09882104,0.399999973 L7.9066525,0.399999973 C8.09204532,0.39982379 8.26989557,0.473392789 8.40098814,0.604485366 C8.53208072,0.735577944 8.60564972,0.913428193 8.60547354,1.09882101 C8.60588557,1.28428588 8.53239232,1.46227325 8.40124853,1.59341704 C8.27010474,1.72456083 8.09211737,1.79805408 7.9066525,1.79764205 L1.79764208,1.79764205 L1.79764208,13.0023576 L13.0023577,13.0023576 L13.0023577,7.09052614 C13.0021815,6.90513332 13.0757505,6.72728307 13.2068431,6.59619049 C13.3379356,6.46509792 13.5157859,6.39152892 13.7011787,6.3917051 C13.8865587,6.39152895 14.0643978,6.46508784 14.1954883,6.59616447 C14.3265787,6.7272411 14.4001564,6.9050724 14.3999998,7.09045245 L14.3999998,13.7011786 C14.3999998,14.0869155 14.0869155,14.3999997 13.7011787,14.3999997 Z M5.65397885,9.84543134 C5.46856487,9.84541697 5.29068812,9.77204116 5.15918939,9.64132608 C4.8866454,9.36779203 4.8866454,8.92535489 5.15918939,8.65182084 L13.0389787,0.772031543 C13.3115366,0.499547339 13.7545998,0.499547339 14.027084,0.772031543 C14.3010419,1.04598943 14.3010419,1.48765258 14.027084,1.76013678 L6.148842,9.64147345 C6.01733128,9.77216152 5.839456,9.84551024 5.65405254,9.84550502 L5.65397885,9.84543134 Z" id="Shape"></path>
                        </g>
                    </g>
                </g>
            </g>
        </g>
    </g>
</svg>