<?xml version="1.0" encoding="UTF-8"?>
<svg width="15px" height="14px" viewBox="0 0 15 14" version="1.1" xmlns="http://www.w3.org/2000/svg" xmlns:xlink="http://www.w3.org/1999/xlink">
    <!-- Generator: Sketch 52.5 (67469) - http://www.bohemiancoding.com/sketch -->
    <title>icon-兴趣爱好</title>
    <desc>Created with Sketch.</desc>
    <g id="Page-1" stroke="none" stroke-width="1" fill="none" fill-rule="evenodd">
        <g id="icon" transform="translate(-326.000000, -264.000000)">
            <g id="icon-兴趣爱好" transform="translate(325.000000, 262.000000)">
                <rect id="Rectangle-21" x="0" y="0" width="18" height="18"></rect>
                <path d="M8.72028324,15.234375 L8.51942848,15.1432533 C8.45656554,15.1139091 6.9463217,14.4235466 5.41921219,13.1540209 C4.51153265,12.3987921 3.78477572,11.5956858 3.26194003,10.7647797 C2.59037983,9.70066393 2.25,8.59021507 2.25,7.46432186 C2.25,6.59634932 2.45852098,5.78860974 2.85409753,5.12759151 C3.23740815,4.48510649 3.78937544,3.98779838 4.44713647,3.6897224 C5.13709558,3.3777465 5.917516,3.29589144 6.70253615,3.45342383 C7.39709499,3.59396742 8.0870541,3.9229321 8.71875,4.41406248 C9.3504459,3.9229321 10.040405,3.59396742 10.7349639,3.45342383 C11.519984,3.29589144 12.3004044,3.37620207 12.9903635,3.6897224 C13.6496578,3.98779838 14.2000918,4.48510649 14.5834025,5.12759151 C14.978979,5.78860974 15.1875,6.59789375 15.1875,7.46432186 C15.1875,8.59021507 14.8471202,9.70066393 14.1770932,10.7647797 C13.6527243,11.5956858 12.9275006,12.3987921 12.019821,13.1540209 C10.4942448,14.4235466 8.98553419,15.1139091 8.92113801,15.1432533 L8.72028324,15.234375 Z" id="Shape" stroke="#979797" stroke-width="1.12" fill-rule="nonzero"></path>
            </g>
        </g>
    </g>
</svg>