<?xml version="1.0" encoding="UTF-8"?>
<svg width="14px" height="16px" viewBox="0 0 14 16" version="1.1" xmlns="http://www.w3.org/2000/svg" xmlns:xlink="http://www.w3.org/1999/xlink">
    <!-- Generator: Sketch 52.5 (67469) - http://www.bohemiancoding.com/sketch -->
    <title>icon-相关附件</title>
    <desc>Created with Sketch.</desc>
    <g id="Page-1" stroke="none" stroke-width="1" fill="none" fill-rule="evenodd">
        <g id="icon" transform="translate(-411.000000, -263.000000)">
            <g id="icon-相关附件" transform="translate(409.000000, 262.000000)">
                <rect id="Rectangle-path" fill="#000000" fill-rule="nonzero" opacity="0" x="0" y="0" width="18" height="18"></rect>
                <g id="Group" transform="translate(3.000000, 2.000000)" stroke="#A0A0A2" stroke-linecap="round" stroke-width="1.12">
                    <path d="M3,8 L9,8" id="Stroke-1"></path>
                    <path d="M3,11 L9,11" id="Stroke-2"></path>
                    <path d="M12,3.66537832 L12,12.2499391 C12,13.2161287 11.2321605,14 10.2853469,14 L1.71413877,14 C0.767325248,14 0,13.2161287 0,12.2499391 L0,1.75006094 C0,0.783871305 0.767325248,0 1.71413877,0 L8.06822955,0" id="Stroke-3"></path>
                    <path d="M3,5 L7,5" id="Stroke-5"></path>
                    <polyline id="Stroke-7" stroke-linejoin="round" points="8 0 8 4 12 4"></polyline>
                    <path d="M8,0 L12,4" id="Stroke-9"></path>
                </g>
            </g>
        </g>
    </g>
</svg>