<?xml version="1.0" encoding="UTF-8"?>
<svg width="15px" height="13px" viewBox="0 0 15 13" version="1.1" xmlns="http://www.w3.org/2000/svg" xmlns:xlink="http://www.w3.org/1999/xlink">
    <!-- Generator: Sketch 52.5 (67469) - http://www.bohemiancoding.com/sketch -->
    <title>icon-学术经历</title>
    <desc>Created with Sketch.</desc>
    <g id="Page-1" stroke="none" stroke-width="1" fill="none" fill-rule="evenodd">
        <g id="icon" transform="translate(-159.000000, -268.000000)">
            <g id="icon-学术经历" transform="translate(157.000000, 265.000000)">
                <rect id="Rectangle-17" x="0" y="0" width="18" height="18"></rect>
                <path d="M8.1924269,3.935 L3.25,3.935 C3.00699471,3.935 2.81,4.13199471 2.81,4.375 L2.81,14.3020672 C2.81,14.5450724 3.00699471,14.7420672 3.25,14.7420672 L7.75314606,14.7420672 L8.67749212,15.2838974 C8.74497352,15.3234535 8.82177989,15.3443053 8.90000021,15.3443053 C9.1430055,15.3443053 9.34000021,15.1473106 9.34000021,14.9043053 L9.34000021,5.10799152 C9.34000021,4.97837492 9.28284997,4.85535239 9.18379889,4.77175007 L8.1924269,3.935 Z" id="Rectangle-15" stroke="#A0A0A2" stroke-width="1.12"></path>
                <path d="M14.604872,3.935 L9.66244507,3.935 C9.41943978,3.935 9.22244507,4.13199471 9.22244507,4.375 L9.22244507,14.3020672 C9.22244507,14.5450724 9.41943978,14.7420672 9.66244507,14.7420672 L14.1655911,14.7420672 L15.0899372,15.2838974 C15.1574186,15.3234535 15.234225,15.3443053 15.3124453,15.3443053 C15.5554506,15.3443053 15.7524453,15.1473106 15.7524453,14.9043053 L15.7524453,5.10799152 C15.7524453,4.97837492 15.695295,4.85535239 15.596244,4.77175007 L14.604872,3.935 Z" id="Rectangle-15" stroke="#A0A0A2" stroke-width="1.12" transform="translate(12.487445, 9.562500) scale(-1, 1) translate(-12.487445, -9.562500) "></path>
            </g>
        </g>
    </g>
</svg>