<?xml version="1.0" encoding="UTF-8"?>
<svg width="14px" height="14px" viewBox="0 0 14 14" version="1.1" xmlns="http://www.w3.org/2000/svg" xmlns:xlink="http://www.w3.org/1999/xlink">
    <!-- Generator: Sketch 52.5 (67469) - http://www.bohemiancoding.com/sketch -->
    <title>icon-作品链接</title>
    <desc>Created with Sketch.</desc>
    <g id="Page-1" stroke="none" stroke-width="1" fill="none" fill-rule="evenodd">
        <g id="icon" transform="translate(-369.000000, -264.000000)" fill-rule="nonzero">
            <g id="icon-作品链接" transform="translate(367.000000, 262.000000)">
                <rect id="Rectangle-path" fill="#000000" opacity="0" x="0" y="0" width="18" height="18"></rect>
                <path d="M10.7049281,7.46931713 C10.60112,7.36554568 10.4904705,7.27200185 10.3764518,7.18526496 L10.3762455,7.18545403 C10.258892,7.0725895 10.0995443,7.0030762 9.92386647,7.0030762 C9.56329717,7.0030762 9.2710222,7.29536203 9.2710222,7.6559063 C9.2710222,7.81543962 9.32833237,7.96156534 9.4234081,8.07496275 L9.42339092,8.07496275 C9.4234081,8.07497993 9.42344249,8.07501432 9.42347687,8.0750315 C9.46914968,8.1295042 9.52348603,8.1764652 9.58449197,8.21364552 C9.64604796,8.26440534 9.70646946,8.31439166 9.7629717,8.37089267 L9.81679238,8.42472937 C10.4934099,9.10048992 10.2914148,10.2647514 9.61479726,10.9413714 L6.72752689,13.8277197 C6.05092657,14.5034802 4.95092891,14.5034802 4.27429423,13.8277197 L4.22004382,13.773436 C3.54339193,13.0968504 3.54339193,11.9960688 4.22004382,11.3211161 L5.49561617,10.0460012 C5.65927846,9.91610212 5.76434138,9.71560685 5.76434138,9.4904622 C5.76434138,9.09885696 5.44688362,8.7814061 5.05526988,8.7814061 C4.90749079,8.7814061 4.77031768,8.82664817 4.65672873,8.90398257 C4.65636775,8.90322625 4.65598957,8.9025043 4.6556114,8.90173078 L4.64201442,8.91445082 C4.59180357,8.95054822 4.5464058,8.99288531 4.50719628,9.04060264 L3.18160216,10.2809781 C1.93554438,11.5278683 1.93554438,13.5671652 3.18160216,14.8123192 L3.23542284,14.8661216 C4.48148063,16.1112928 6.51994514,16.1112928 7.76600293,14.8661216 L10.6524138,11.9789139 C11.8967526,10.7329519 12.0022625,8.76744843 10.7579409,7.52227716 L10.7049281,7.46931713 Z M14.8655705,3.23540138 L14.8117498,3.18158186 C13.5657092,1.93555114 11.5272447,1.93555114 10.2811869,3.18158186 L7.39477606,6.06877234 C6.14871828,7.31480307 6.08009735,9.11413819 7.32615513,10.3609768 L7.37911632,10.413129 C7.43570452,10.4696988 7.49444142,10.523037 7.55439879,10.5741921 C7.59780256,10.6226658 7.64878694,10.6641606 7.7054611,10.6969749 C7.70589085,10.6973186 7.70633778,10.6976796 7.70676751,10.6980234 L7.70695659,10.6978515 C7.797288,10.7497974 7.90195556,10.7796723 8.01365364,10.7796723 C8.35404233,10.7796723 8.62996998,10.5037163 8.62996998,10.1633693 C8.62996998,10.0672987 8.60796728,9.97636762 8.56874058,9.89530317 C8.48726183,9.7123581 8.3347384,9.60098902 8.22924575,9.49548148 L8.17626736,9.44336372 C7.49966705,8.7667781 7.75660017,7.78381148 8.4332005,7.10722585 L11.3213132,4.22086046 C11.9962461,3.54424045 13.0966219,3.54424045 13.7732566,4.22086046 L13.8271116,4.27382049 C14.5037292,4.95045768 14.5037292,6.05166906 13.8271116,6.72742961 L12.5557164,7.99965674 C12.3827545,8.12780252 12.2705923,8.33335142 12.2705923,8.56511394 C12.2705923,8.95353916 12.5854888,9.26844602 12.9739396,9.26844602 C13.1091359,9.26844602 13.2353765,9.23021715 13.3425709,9.16410734 C13.3433788,9.16548247 13.3441351,9.16675448 13.344943,9.16814681 L13.3646595,9.14994341 C13.4254076,9.10927368 13.4793658,9.05933893 13.5247292,9.00225347 L14.8646594,7.7658831 C16.1116283,6.51986953 16.1116283,4.4814149 14.8655705,3.23540138 Z" id="Shape" fill="#A0A0A2"></path>
            </g>
        </g>
    </g>
</svg>