<?xml version="1.0" encoding="UTF-8"?>
<svg width="13px" height="13px" viewBox="0 0 13 13" version="1.1" xmlns="http://www.w3.org/2000/svg" xmlns:xlink="http://www.w3.org/1999/xlink">
    <!-- Generator: Sketch 52.5 (67469) - http://www.bohemiancoding.com/sketch -->
    <title>icon-语言能力</title>
    <desc>Created with Sketch.</desc>
    <g id="Page-1" stroke="none" stroke-width="1" fill="none" fill-rule="evenodd">
        <g id="icon" transform="translate(-243.000000, -267.000000)" fill="#A0A0A2" fill-rule="nonzero">
            <g id="icon-语言能力" transform="translate(241.000000, 264.000000)">
                <rect id="Rectangle-path" opacity="0" x="0" y="0" width="18" height="18"></rect>
                <path d="M7.66847826,3.125 L2.40217391,3.125 C2.24972826,3.125 2.125,3.24972826 2.125,3.40217391 L2.125,8.66847826 C2.125,8.82092391 2.24972826,8.94565217 2.40217391,8.94565217 L7.66847826,8.94565217 C7.82092391,8.94565217 7.94565217,8.82092391 7.94565217,8.66847826 L7.94565217,3.40217391 C7.94565217,3.24972826 7.82092391,3.125 7.66847826,3.125 Z M6.76766304,7.76766304 L3.30298913,7.76766304 L3.30298913,4.30298913 L6.76766304,4.30298913 L6.76766304,7.76766304 Z M14.5978261,3.125 L9.33152174,3.125 C9.17907609,3.125 9.05434783,3.24972826 9.05434783,3.40217391 L9.05434783,8.66847826 C9.05434783,8.82092391 9.17907609,8.94565217 9.33152174,8.94565217 L14.5978261,8.94565217 C14.7502717,8.94565217 14.875,8.82092391 14.875,8.66847826 L14.875,3.40217391 C14.875,3.24972826 14.7502717,3.125 14.5978261,3.125 Z M13.6970109,7.76766304 L10.232337,7.76766304 L10.232337,4.30298913 L13.6970109,4.30298913 L13.6970109,7.76766304 Z M7.66847826,10.0543478 L2.40217391,10.0543478 C2.24972826,10.0543478 2.125,10.1790761 2.125,10.3315217 L2.125,15.5978261 C2.125,15.7502717 2.24972826,15.875 2.40217391,15.875 L7.66847826,15.875 C7.82092391,15.875 7.94565217,15.7502717 7.94565217,15.5978261 L7.94565217,10.3315217 C7.94565217,10.1790761 7.82092391,10.0543478 7.66847826,10.0543478 Z M6.76766304,14.6970109 L3.30298913,14.6970109 L3.30298913,11.232337 L6.76766304,11.232337 L6.76766304,14.6970109 Z M14.5978261,10.0543478 L9.33152174,10.0543478 C9.17907609,10.0543478 9.05434783,10.1790761 9.05434783,10.3315217 L9.05434783,15.5978261 C9.05434783,15.7502717 9.17907609,15.875 9.33152174,15.875 L14.5978261,15.875 C14.7502717,15.875 14.875,15.7502717 14.875,15.5978261 L14.875,10.3315217 C14.875,10.1790761 14.7502717,10.0543478 14.5978261,10.0543478 Z M13.6970109,14.6970109 L10.232337,14.6970109 L10.232337,11.232337 L13.6970109,11.232337 L13.6970109,14.6970109 Z" id="Shape"></path>
            </g>
        </g>
    </g>
</svg>