<?xml version="1.0" encoding="UTF-8"?>
<svg width="14px" height="15px" viewBox="0 0 14 15" version="1.1" xmlns="http://www.w3.org/2000/svg" xmlns:xlink="http://www.w3.org/1999/xlink">
    <!-- Generator: Sketch 52.5 (67469) - http://www.bohemiancoding.com/sketch -->
    <title>icon-专业技能</title>
    <desc>Created with Sketch.</desc>
    <g id="Page-1" stroke="none" stroke-width="1" fill="none" fill-rule="evenodd">
        <g id="icon" transform="translate(-285.000000, -265.000000)" fill-rule="nonzero">
            <g id="icon-专业技能" transform="translate(283.000000, 264.000000)">
                <rect id="Rectangle-path" fill="#000000" opacity="0" x="0" y="0" width="18" height="18"></rect>
                <path d="M13.8055078,15.7600371 L4.19799023,15.7600371 C3.43439648,15.7600371 2.81315039,15.1388086 2.81315039,14.3752148 L2.81315039,3.07216406 C2.81315039,2.30857031 3.43437891,1.68732422 4.19799023,1.68732422 L13.8055078,1.68732422 C14.5691016,1.68732422 15.1903301,2.30855273 15.1903301,3.07216406 L15.1903301,14.3752148 C15.1903301,15.1388086 14.5691016,15.7600371 13.8055078,15.7600371 Z M4.19799023,2.81232422 C4.05713672,2.81232422 3.93815039,2.93131055 3.93815039,3.07216406 L3.93815039,14.3752148 C3.93815039,14.5160684 4.05713672,14.6350371 4.19799023,14.6350371 L13.8055078,14.6350371 C13.9463613,14.6350371 14.0653301,14.5160508 14.0653301,14.3752148 L14.0653301,3.07216406 C14.0653301,2.93131055 13.9463438,2.81232422 13.8055078,2.81232422 L4.19799023,2.81232422 Z" id="Shape" fill="#A0A0A2"></path>
                <path d="M3.37565039,11.6908066 L14.0902031,11.6908066 L14.0902031,12.8158066 L3.37565039,12.8158066 L3.37565039,11.6908066 Z M5.20490039,9.24771094 C4.89424219,9.24771094 4.64240039,8.99586914 4.64240039,8.68521094 L4.64240039,2.30465039 C4.64240039,1.99399219 4.89424219,1.74215039 5.20490039,1.74215039 C5.51555859,1.74215039 5.76740039,1.99399219 5.76740039,2.30465039 L5.76740039,8.68519336 C5.76740039,8.99586914 5.51555859,9.24771094 5.20490039,9.24771094 Z" id="Shape" fill="#A0A0A2"></path>
                <path d="M5.20920703,9.3536543 C5.04799805,9.3536543 4.8879668,9.28471289 4.77671484,9.1511543 C4.57787109,8.91246094 4.61017969,8.55778711 4.84885547,8.35894336 L6.87505078,6.67105664 C7.11374414,6.47221289 7.46843555,6.50452148 7.66726172,6.74321484 C7.86610547,6.9819082 7.83379688,7.33658203 7.59512109,7.53542578 L5.56894336,9.22333008 C5.46803941,9.30763907 5.34069695,9.35377232 5.20920703,9.3536543 Z M9.23899219,9.21933984 C8.92833398,9.21933984 8.67649219,8.96749805 8.67649219,8.65683984 L8.67649219,2.27629687 C8.67649219,1.96563867 8.92833398,1.71379688 9.23899219,1.71379688 C9.54965039,1.71379688 9.80149219,1.96563867 9.80149219,2.27629687 L9.80149219,8.65683984 C9.80149219,8.96749805 9.54965039,9.21933984 9.23899219,9.21933984 Z" id="Shape" fill="#A0A0A2"></path>
                <path d="M9.23468555,9.3252832 C9.10320062,9.3254031 8.97586307,9.27926937 8.8749668,9.19495898 L6.84877148,7.50707227 C6.61007813,7.30822852 6.57776953,6.95355469 6.77663086,6.71486133 C6.97547461,6.47616797 7.33016602,6.44387695 7.5688418,6.64270313 L9.59501953,8.33058984 C9.83371289,8.52943359 9.86602148,8.88410742 9.66717773,9.12280078 C9.55592578,9.2563418 9.39587695,9.3252832 9.23468555,9.3252832 Z" id="Shape" fill="#A0A0A2"></path>
            </g>
        </g>
    </g>
</svg>