<?xml version="1.0" encoding="UTF-8"?>
<svg width="16px" height="15px" viewBox="0 0 16 15" version="1.1" xmlns="http://www.w3.org/2000/svg" xmlns:xlink="http://www.w3.org/1999/xlink">
    <!-- Generator: Sketch 52.5 (67469) - http://www.bohemiancoding.com/sketch -->
    <title>icon-教育背景</title>
    <desc>Created with Sketch.</desc>
    <g id="Page-1" stroke="none" stroke-width="1" fill="none" fill-rule="evenodd">
        <g id="简历" transform="translate(-1272.000000, -804.000000)" fill-rule="nonzero">
            <g id="简历完善度" transform="translate(1256.000000, 578.000000)">
                <g id="Group-14" transform="translate(15.000000, 223.000000)">
                    <g id="icon-教育背景" transform="translate(0.000000, 1.000000)">
                        <rect id="Rectangle-path" fill="#000000" opacity="0" x="0" y="0" width="18" height="18"></rect>
                        <path d="M8.9530226,11.5807215 C8.64411804,11.5807215 8.34400951,11.507799 8.10799153,11.3753188 L1.66974267,7.76302592 C1.32383719,7.56954911 1.125,7.25929545 1.125,6.91213084 C1.125,6.56498421 1.32363932,6.25453269 1.6701384,6.06040831 L8.10799154,2.44876302 C8.57876836,2.18398254 9.325604,2.18347888 9.7984854,2.44885296 L16.2363026,6.06062419 C16.5826038,6.25491046 16.7810092,6.56539796 16.7808294,6.91243666 C16.7806135,7.25936745 16.5819742,7.56942323 16.2358888,7.76331377 L9.7980537,11.3752829 C9.56226953,11.507691 9.262161,11.5807215 8.9530226,11.5807215 Z M2.73190453,6.91184301 L8.7254409,10.274753 C8.76449243,10.2966261 8.84993449,10.3186972 8.9530226,10.3186972 C9.07093266,10.3186972 9.15146406,10.2910679 9.18042442,10.2748429 L15.1741946,6.91195093 L9.1806043,3.54934679 C9.14139088,3.5273657 9.05591283,3.50527667 8.9530226,3.50527667 C8.83534639,3.50527667 8.754797,3.53279801 8.72585462,3.54913095 L2.73190453,6.91184301 Z M8.95485735,16.1972195 C6.29507269,16.1972195 3.59397004,15.3472598 3.47298407,13.7212702 C3.46724596,13.6873812 3.46436791,13.6526647 3.46436791,13.6171388 L3.46436791,8.81864021 C3.46436791,8.47016248 3.74679443,8.18761005 4.09538007,8.18761005 C4.44396572,8.18761005 4.72639224,8.47016248 4.72639224,8.81864021 L4.72639224,13.5417519 C4.72905443,13.5643446 4.7307093,13.5871172 4.7308892,13.6103394 C4.73601572,14.0774288 6.34354982,14.9351952 8.95485735,14.9351952 C11.5661829,14.9351952 13.1735191,14.0774108 13.1784118,13.6103394 C13.1786456,13.6017053 13.1788615,13.593287 13.1792572,13.5846529 L13.1792572,8.81864021 C13.1792572,8.47016248 13.4617017,8.18761005 13.8102514,8.18761005 C14.158855,8.18761005 14.4412456,8.47016248 14.4412456,8.81864021 L14.4412456,13.6171388 C14.4412456,13.6337596 14.440634,13.6501824 14.4393928,13.6664074 C14.3759319,15.3281568 11.6442679,16.1972195 8.95485735,16.1972195 Z M16.0590327,14.5562281 C15.7104831,14.5562281 15.4280206,14.2738196 15.4280206,13.9252339 L15.4280206,8.91557649 C15.4280206,8.56709876 15.710483,8.28456432 16.0590327,8.28456432 C16.4076364,8.28456432 16.6900269,8.56709876 16.6900269,8.91557649 L16.6900269,13.9252339 C16.6900449,14.2738016 16.4076364,14.5562281 16.0590327,14.5562281 Z" id="Shape" fill="#A0A0A2"></path>
                    </g>
                </g>
            </g>
        </g>
    </g>
</svg>